<svg width="196" height="36" viewBox="0 0 196 36" fill="none" xmlns="http://www.w3.org/2000/svg">
<path d="M181.645 15L178 3L174.355 15H163L172.27 21.615L168.745 33L178 25.965L187.27 33L183.745 21.615L193 15H181.645Z" fill="#E3E3E3"/>
<path d="M141.645 15L138 3L134.355 15H123L132.27 21.615L128.745 33L138 25.965L147.27 33L143.745 21.615L153 15H141.645Z" fill="#FF6060"/>
<path d="M101.645 15L98 3L94.355 15H83L92.27 21.615L88.745 33L98 25.965L107.27 33L103.745 21.615L113 15H101.645Z" fill="#FF6060"/>
<path d="M61.645 15L58 3L54.355 15H43L52.27 21.615L48.745 33L58 25.965L67.27 33L63.745 21.615L73 15H61.645Z" fill="#FF6060"/>
<path d="M21.645 15L18 3L14.355 15H3L12.27 21.615L8.745 33L18 25.965L27.27 33L23.745 21.615L33 15H21.645Z" fill="#FF6060"/>
</svg>
